<svg xmlns="http://www.w3.org/2000/svg" viewBox="0 0 64 64">
  <defs>
    <linearGradient id="g" x1="0" y1="0" x2="1" y2="1">
      <stop offset="0%" stop-color="#3b82f6"/>
      <stop offset="100%" stop-color="#8b5cf6"/>
    </linearGradient>
  </defs>
  <rect x="6" y="10" width="52" height="48" rx="8" fill="url(#g)"/>
  <rect x="6" y="10" width="52" height="14" rx="8" fill="#1e40af"/>
  <circle cx="20" cy="8" r="3" fill="#1e40af"/>
  <circle cx="44" cy="8" r="3" fill="#1e40af"/>
  <rect x="18" y="6" width="4" height="8" rx="2" fill="#94a3b8"/>
  <rect x="42" y="6" width="4" height="8" rx="2" fill="#94a3b8"/>
  <g fill="#ffffff">
    <rect x="14" y="30" width="8" height="2" rx="1"/>
    <rect x="26" y="30" width="14" height="2" rx="1"/>
    <rect x="14" y="38" width="20" height="2" rx="1"/>
    <rect x="38" y="38" width="12" height="2" rx="1"/>
    <rect x="14" y="46" width="10" height="2" rx="1"/>
    <rect x="28" y="46" width="16" height="2" rx="1"/>
  </g>
</svg>
